# AST/ASF file generated using VICON BodyLanguage
# -----------------------------------------------
:version 1.10
:name VICON
:units
  mass 1.0
  length 0.45
  angle deg
:documentation
   .ast/.asf automatically generated from VICON data using
   VICON BodyBuilder and BodyLanguage model FoxedUp or BRILLIANT.MOD
:root
   order TX TY TZ RX RY RZ
   axis XYZ
   position 0 0 0  
   orientation 0 0 0 
:bonedata
  begin
     id 1 
     name lhipjoint
     direction 0.547975 -0.797114 0.253638 
     length 2.36201 
     axis 0 0 0  XYZ
  end
  begin
     id 2 
     name lfemur
     direction 0.34202 -0.939693 0  
     length 7.69075  
     axis 0 0 20  XYZ
    dof rx ry rz
    limits (-160.0 20.0)
           (-70.0 70.0)
           (-60.0 70.0)
  end
  begin
     id 3 
     name ltibia
     direction 0.34202 -0.939693 0   
     length 7.91399   
     axis 0 0 20   XYZ
    dof rx
    limits (-10.0 170.0)
  end
  begin
     id 4 
     name lfoot
     direction 0.0705293 -0.193778 0.978507   
     length 2.13618   
     axis -90 7.62852e-016 20   XYZ
    dof rx rz
    limits (-45.0 90.0)
           (-70.0 20.0)
  end
  begin
     id 5 
     name ltoes
     direction 1.53592e-011 -4.21925e-011 1   
     length 1.07518   
     axis -90 7.62852e-016 20   XYZ
    dof rx
    limits (-90.0 20.0)
  end
  begin
     id 6 
     name rhipjoint
     direction -0.57 -0.782963 0.249136   
     length 2.4047  
     axis 0 0 0  XYZ 
  end
  begin
     id 7 
     name rfemur
     direction -0.34202 -0.939693 0   
     length 7.51486   
     axis 0 0 -20   XYZ
    dof rx ry rz
    limits (-160.0 20.0)
           (-70.0 70.0)
           (-70.0 60.0)
  end
  begin
     id 8 
     name rtibia
     direction -0.34202 -0.939693 0   
     length 8.08317   
     axis 0 0 -20   XYZ
    dof rx
    limits (-10.0 170.0)
 end
 begin
     id 9 
     name rfoot
     direction -0.104954 -0.281256 0.953876   
     length 2.30343  
     axis -90 -7.62852e-016 -20   XYZ
    dof rx rz
    limits (-45.0 90.0)
           (-20.0 70.0)
  end
  begin
     id 10 
     name rtoes
     direction -1.53556e-011 -4.21922e-011 1   
     length 1.14803   
     axis -90 -7.62852e-016 -20   XYZ
    dof rx
    limits (-90.0 20.0)
  end
  begin
     id 11 
     name lowerback
     direction -0.0152855 0.99353 -0.11254   
     length 2.05311   
     axis 0 0 0   XYZ
    dof rx ry rz
    limits (-20.0 45.0)
           (-30.0 30.0)
           (-30.0 30.0)
  end
  begin
     id 12 
     name upperback
     direction -0.00157509 0.999443 -0.033332   
     length 2.06353   
     axis 0 0 0   XYZ
    dof rx ry rz
    limits (-20.0 45.0)
           (-30.0 30.0)
           (-30.0 30.0)
  end
  begin
     id 13 
     name thorax
     direction 0.00577788 0.999804 0.0189484   
     length 2.08472   
     axis 0 0 0   XYZ
    dof rx ry rz
    limits (-20.0 45.0)
           (-30.0 30.0)
           (-30.0 30.0)
  end
  begin
     id 14 
     name lowerneck
     direction -1.09301e-005 0.994719 0.10264   
     length 1.76249   
     axis 0 0 0   XYZ
    dof rx ry rz
    limits (-20.0 45.0)
           (-30.0 30.0)
           (-30.0 30.0)
  end
  begin
     id 15 
     name upperneck
     direction 0.0495018 0.988526 -0.142706   
     length 1.77897   
     axis 0 0 0   XYZ
    dof rx ry rz
    limits (-20.0 45.0)
           (-30.0 30.0)
           (-30.0 30.0)
  end
  begin
     id 16
     name head
     direction 0.0142736 0.998114 -0.0597101  
     length 1.78934  
     axis 0 0 0   XYZ
    dof rx ry rz
    limits (-20.0 45.0)
           (-30.0 30.0)
           (-30.0 30.0)
  end
  begin
     id 17 
     name lclavicle
     direction 0.918111 0.396107 -0.0130883  
     length 3.37276  
     axis 0 0 0   XYZ
    dof ry rz
    limits (-20.0 10.0)
           (0.0 20.0)
  end
  begin
     id 18 
     name lhumerus
     direction 1 -4.48975e-011 -3.26108e-027   
     length 5.34298   
     axis 180 -30 -90   XYZ
    dof rx ry rz
    limits (-60.0 90.0)
           (-90.0 90.0)
           (-90.0 90.0)
  end
  begin
     id 19
     name lradius
     direction 1 -4.48964e-011 -8.84413e-028   
     length 3.67262   
     axis 180 -30 -90   XYZ
    dof rx
    limits (-10.0 170.0)
  end
  begin
     id 20
     name lwrist
     direction 1 -4.48991e-011 -1.24264e-027   
     length 1.83631   
     axis -2.17013e-015 90 90   XYZ
    dof ry
    limits (-180.0 0.0)
 end
  begin
     id 21 
     name lhand
     direction 1 -4.48855e-011 -2.48528e-027   
     length 0.599298   
     axis 1.58582e-015 90 90   XYZ
    dof rx rz
    limits (-90.0 90.0)
           (-45.0 45.0)
  end
  begin
     id 22 
     name lfingers
     direction 1 -4.48811e-011 -4.97056e-027   
     length 0.48317   
     axis 3.17164e-015 90 90   XYZ
    dof rx
    limits (0.0 90.0)
  end
  begin
     id 23
     name lthumb
     direction 0.707107 -6.34882e-011 0.707107   
     length 0.693738   
     axis -90 45 2.85299e-015   XYZ
    dof rx rz
    limits (-45.0 45.0)
           (-45.0 45.0)
  end
  begin
     id 24 
     name rclavicle
     direction -0.920511 0.384752 -0.0680135   
     length 3.43787  
     axis 0 0 0   XYZ 
    dof ry rz
    limits (-10.0 20.0)
           (-20.0 0.0)
  end
  begin
     id 25 
     name rhumerus
     direction -0.999976 -0.00330524 0.00603274  
     length 5.5498   
     axis 180 30 90   XYZ
    dof rx ry rz
    limits (-90.0 60.0)
           (-90.0 90.0)
           (-90.0 90.0)
  end
  begin
     id 26 
     name rradius
     direction -1 -4.48967e-011 8.62438e-027   
     length 3.69401   
     axis 180 30 90   XYZ
    dof rx
    limits (-10.0 170.0)
  end
  begin
     id 27 
     name rwrist
     direction -1 -4.4897e-011 9.54866e-027   
     length 1.84701   
     axis -7.69462e-015 -90 -90   XYZ
    dof ry
    limits (-180.0 0.0)
  end
  begin
     id 28
     name rhand
     direction -1 -4.48982e-011 1.90973e-026   
     length 0.638113   
     axis -1.21857e-014 -90 -90   XYZ
    dof rx rz
    limits (-90.0 90.0)
           (-45.0 45.0)
  end
  begin
     id 29
     name rfingers
     direction -1 -4.48936e-011 3.81946e-026   
     length 0.514463   
     axis -2.43714e-014 -90 -90   XYZ
    dof rx
    limits (0.0 90.0)
  end
  begin
     id 30
     name rthumb
     direction -0.707107 -6.34942e-011 0.707107   
     length 0.738669   
     axis -90 -45 -2.85299e-015   XYZ
    dof rx rz
    limits (-45.0 45.0)
           (-45.0 45.0)
  end
:hierarchy
  begin
    root lhipjoint rhipjoint lowerback
    lhipjoint lfemur
    lfemur ltibia
    ltibia lfoot
    lfoot ltoes
    rhipjoint rfemur
    rfemur rtibia
    rtibia rfoot
    rfoot rtoes
    lowerback upperback
    upperback thorax
    thorax lowerneck lclavicle rclavicle
    lowerneck upperneck
    upperneck head
    lclavicle lhumerus
    lhumerus lradius
    lradius lwrist
    lwrist lhand lthumb
    lhand lfingers
    rclavicle rhumerus
    rhumerus rradius
    rradius rwrist
    rwrist rhand rthumb
    rhand rfingers
  end

#!OML:ASF F:\twosubjects\two\Thursday\Session 1\Rory.ASF
:FULLY-SPECIFIED
:DEGREES
177
root 0.509036 18.5591 9.10718 6.09627 15.2835 5.67743
lowerback 2.96463 3.73382 -7.58917
upperback 2.0748 4.80971 -2.81087
thorax 0.110454 2.35736 1.18065
lowerneck 5.54598 21.5543 13.0593
upperneck 4.61111 30.9577 -19.2037
head 5.55793 15.4267 -5.51895
rclavicle 4.45775e-014 -5.96354e-015
rhumerus -40.2924 -21.0825 -73.3114
rradius 33.7711
rwrist 19.8677
rhand -19.2173 25.263
rfingers 7.12502
rthumb 7.09544 -4.59802
lclavicle 4.45775e-014 -5.96354e-015
lhumerus -23.6054 14.5243 79.1174
lradius 18.644
lwrist -26.0942
lhand -14.9771 30.4125
lfingers 7.12502
lthumb 11.1868 60.0943
rfemur -27.7771 1.3305 9.83556
rtibia 36.8387
rfoot -12.6094 -11.5908
rtoes -7.59095
lfemur -0.458854 -1.25823 -28.5251
ltibia 16.5709
lfoot -12.4835 -7.85335
ltoes 7.40747
178
root 0.474227 18.5977 9.26323 5.726 14.6878 3.7844
lowerback 3.04218 3.97079 -6.58596
upperback 1.89422 5.12616 -2.17023
thorax -0.120405 2.52842 1.26083
lowerneck 5.7789 21.623 13.1715
upperneck 4.52899 31.0936 -19.4162
head 5.57177 15.5086 -5.59028
rclavicle 4.6615e-014 1.63003e-014
rhumerus -40.4694 -20.9891 -73.3164
rradius 33.8796
rwrist 19.636
rhand -19.3642 25.2458
rfingers 7.12502
rthumb 6.9536 -4.61999
lclavicle 4.6615e-014 1.63003e-014
lhumerus -23.5381 14.0522 79.2486
lradius 18.7111
lwrist -26.1022
lhand -16.3569 29.1198
lfingers 7.12502
lthumb 9.85585 58.8692
rfemur -27.9102 4.8775 11.5784
rtibia 33.7817
rfoot -11.681 -13.4218
rtoes -8.84862
lfemur 0.0785291 -1.14736 -26.2885
ltibia 15.933
lfoot -12.1184 -7.39017
ltoes 6.62039
179
root 0.470299 18.6369 9.41098 5.56908 14.3339 3.04628
lowerback 3.21902 4.07693 -6.27603
upperback 1.82033 5.255 -1.90349
thorax -0.303186 2.59905 1.3408
lowerneck 5.83124 21.7189 13.0902
upperneck 4.34453 31.1984 -19.467
head 5.51958 15.5686 -5.59292
rclavicle -4.25399e-014 -8.34896e-015
rhumerus -40.5745 -21.0338 -73.3327
rradius 34.0774
rwrist 19.5217
rhand -19.1006 25.279
rfingers 7.12502
rthumb 7.20803 -4.57829
lclavicle -4.25399e-014 -8.34896e-015
lhumerus -23.7471 13.3678 79.3838
lradius 19.3764
lwrist -25.493
lhand -16.117 28.7864
lfingers 7.12502
lthumb 10.0872 58.5247
rfemur -27.9105 7.36517 11.8926
rtibia 30.8523
rfoot -10.965 -14.5075
rtoes -7.86197
lfemur 0.927746 -1.16625 -25.3948
ltibia 14.9769
lfoot -11.7115 -6.97165
ltoes 3.66724
180
root 0.4884 18.6637 9.56917 5.72517 14.2953 3.01939
lowerback 3.05239 4.04301 -6.37684
upperback 1.79153 5.21969 -1.8311
thorax -0.252915 2.57968 1.48296
lowerneck 6.03211 21.659 13.1247
upperneck 3.98134 31.1273 -19.8992
head 5.44498 15.558 -5.75959
rclavicle 6.91274e-014 -3.22031e-014
rhumerus -40.5764 -21.0119 -73.2926
rradius 34.1232
rwrist 19.6465
rhand -18.588 25.1052
rfingers 7.12502
rthumb 7.70285 -4.73448
lclavicle 6.91274e-014 -3.22031e-014
lhumerus -24.1367 12.4884 79.7023
lradius 20.4648
lwrist -24.3108
lhand -14.1586 29.9564
lfingers 7.12502
lthumb 11.9762 59.5938
rfemur -28.0455 9.16954 11.3151
rtibia 28.1276
rfoot -11.0261 -15.2714
rtoes -2.86368
lfemur 1.75532 -0.983019 -25.2853
ltibia 13.9192
lfoot -11.3232 -7.0287
ltoes -0.702739
181
root 0.51073 18.6684 9.72519 5.94615 14.269 2.97548
lowerback 2.81418 4.02139 -6.39717
upperback 1.76397 5.20924 -1.75262
thorax -0.156755 2.57198 1.59167
lowerneck 6.06334 21.6033 13.1662
upperneck 3.93628 31.091 -20.2018
head 5.47971 15.5423 -5.85267
rclavicle -3.8763e-015 1.86858e-014
rhumerus -40.4465 -20.9255 -73.244
rradius 33.9765
rwrist 19.8164
rhand -18.8543 25.4464
rfingers 7.12502
rthumb 7.44583 -4.40257
lclavicle -3.8763e-015 1.86858e-014
lhumerus -24.4095 11.7886 80.1083
lradius 21.7401
lwrist -23.6868
lhand -13.8353 30.3276
lfingers 7.12502
lthumb 12.2879 59.9465
rfemur -28.2716 10.4957 10.8647
rtibia 25.6542
rfoot -11.1683 -15.9038
rtoes 0.0867155
lfemur 2.66774 -0.748179 -25.1923
ltibia 12.6656
lfoot -10.9989 -7.00865
ltoes -4.85646
182
root 0.537105 18.6782 9.88517 6.09288 14.3869 3.22856
lowerback 2.65276 3.95589 -6.6395
upperback 1.86661 5.13638 -1.74793
thorax 0.0242999 2.52719 1.74903
lowerneck 5.79939 21.5746 13.1426
upperneck 4.12933 31.0829 -20.3116
head 5.59556 15.5124 -5.83901
rclavicle 8.23465e-014 -3.29983e-014
rhumerus -40.2498 -20.9479 -73.1949
rradius 33.8461
rwrist 19.9586
rhand -19.236 26.1093
rfingers 7.12502
rthumb 7.07733 -3.75241
lclavicle 8.23465e-014 -3.29983e-014
lhumerus -24.6421 11.091 80.5027
lradius 23.2101
lwrist -23.228
lhand -14.3614 30.0674
lfingers 7.12502
lthumb 11.7806 59.716
rfemur -28.2152 11.3015 10.2596
rtibia 23.374
rfoot -10.7558 -16.3638
rtoes -3.72943
lfemur 3.63053 -0.899541 -25.4061
ltibia 11.7993
lfoot -10.7524 -6.95682
ltoes -6.45531
183
root 0.55886 18.6927 10.0401 6.10699 14.4637 3.0796
lowerback 2.69083 3.96104 -6.39504
upperback 1.84802 5.14412 -1.68829
thorax -0.00189672 2.53371 1.67241
lowerneck 5.8727 21.4789 13.2016
upperneck 4.06404 30.9824 -20.5466
head 5.5975 15.4702 -5.9347
rclavicle 5.889e-014 -4.17448e-015
rhumerus -40.3688 -20.9777 -73.081
rradius 33.8363
rwrist 19.9173
rhand -19.3755 26.1427
rfingers 7.12502
rthumb 6.94269 -3.72347
lclavicle 5.889e-014 -4.17448e-015
lhumerus -25.0563 10.121 80.8582
lradius 24.5943
lwrist -22.53
lhand -13.0524 30.86
lfingers 7.12502
lthumb 13.0427 60.4323
rfemur -28.0058 11.5463 10.4812
rtibia 21.247
rfoot -11.4455 -16.6308
rtoes -4.63644
lfemur 4.46998 -1.5151 -25.1697
ltibia 11.0945
lfoot -10.0726 -6.9782
ltoes -3.21281
184
root 0.582144 18.6892 10.1918 6.15532 14.4996 2.81091
lowerback 2.78888 3.93715 -5.95473
upperback 1.69791 5.10662 -1.67977
thorax -0.173016 2.52493 1.42797
lowerneck 6.05093 21.5251 13.1801
upperneck 3.94171 31.0298 -20.5048
head 5.52873 15.51 -5.94114
rclavicle -3.38431e-014 4.29375e-014
rhumerus -40.5433 -20.8105 -73.1934
rradius 33.8107
rwrist 19.5647
rhand -19.2846 25.7674
rfingers 7.12502
rthumb 7.03046 -4.09587
lclavicle -3.38431e-014 4.29375e-014
lhumerus -25.4372 9.34125 80.9663
lradius 25.4732
lwrist -21.9434
lhand -12.6171 31.3856
lfingers 7.12502
lthumb 13.4622 60.9306
rfemur -27.8601 11.4184 11.0645
rtibia 19.2728
rfoot -11.0565 -17.0282
rtoes -12.2094
lfemur 5.05553 -1.84074 -24.7464
ltibia 10.5986
lfoot -9.31695 -7.20291
ltoes 0.686329
185
root 0.6111 18.6947 10.3594 6.29698 14.703 3.11765
lowerback 2.65592 3.82333 -6.07051
upperback 1.73997 4.966 -1.80651
thorax -0.0438199 2.45086 1.37977
lowerneck 5.91341 21.8509 12.4195
upperneck 3.5989 31.2787 -19.9518
head 5.27163 15.6359 -5.69554
rclavicle 4.34344e-014 -1.31198e-014
rhumerus -40.551 -20.9372 -73.3127
rradius 33.9127
rwrist 19.6854
rhand -18.8589 25.5154
rfingers 7.12502
rthumb 7.44137 -4.33367
lclavicle 4.34344e-014 -1.31198e-014
lhumerus -25.6287 8.63884 81.0576
lradius 26.2115
lwrist -21.2672
lhand -14.101 30.4857
lfingers 7.12502
lthumb 12.0317 60.1198
rfemur -27.8062 12.458 10.3843
rtibia 17.3739
rfoot -11.5144 -18.2719
rtoes -14.7772
lfemur 5.53856 -1.72646 -24.8989
ltibia 10.5992
lfoot -9.15994 -7.64394
ltoes 0.963067
186
root 0.636492 18.7001 10.5396 6.2705 14.7575 3.28473
lowerback 2.32915 3.79993 -6.15309
upperback 1.97012 4.97269 -1.80987
thorax 0.36965 2.43938 1.45519
lowerneck 5.48136 21.623 12.622
upperneck 3.85905 31.0281 -20.1919
head 5.45243 15.4754 -5.74972
rclavicle -5.79954e-014 -4.57205e-015
rhumerus -40.422 -21.1568 -73.2734
rradius 34.0547
rwrist 20.0415
rhand -18.67 25.2996
rfingers 7.12502
rthumb 7.62363 -4.543
lclavicle -5.79954e-014 -4.57205e-015
lhumerus -25.4607 8.48806 81.2413
lradius 26.5007
lwrist -21.113
lhand -14.893 29.4364
lfingers 7.12502
lthumb 11.268 59.1137
rfemur -27.7484 13.8561 9.79698
rtibia 15.9601
rfoot -12.2151 -19.551
rtoes -14.5082
lfemur 6.41959 -1.41298 -24.9021
ltibia 10.2103
lfoot -9.08092 -8.13458
ltoes -0.196155
187
root 0.666277 18.6914 10.7098 6.16361 14.6386 2.88509
lowerback 2.06938 3.79164 -5.66399
upperback 2.04253 4.99263 -1.66383
thorax 0.614636 2.44624 1.35811
lowerneck 5.46713 21.6115 12.6377
upperneck 3.89326 31.0494 -20.3961
head 5.50711 15.4816 -5.79613
rclavicle 1.55549e-014 7.95139e-016
rhumerus -40.298 -20.7738 -73.3586
rradius 34.0307
rwrist 19.8104
rhand -18.4112 25.0438
rfingers 7.12502
rthumb 7.87349 -4.7896
lclavicle 1.55549e-014 7.95139e-016
lhumerus -25.2659 8.55968 81.3704
lradius 26.3816
lwrist -20.945
lhand -14.529 29.4971
lfingers 7.12502
lthumb 11.6189 59.1549
rfemur -27.7894 13.3821 10.6744
rtibia 15.2855
rfoot -12.2655 -19.0126
rtoes -18.0377
lfemur 7.60958 -1.26576 -24.3352
ltibia 9.02484
lfoot -8.45212 -8.42082
ltoes -0.763843
188
root 0.700035 18.6857 10.8663 6.19646 14.5658 2.58833
lowerback 2.11441 3.80945 -5.07809
upperback 1.87669 5.0133 -1.63789
thorax 0.462565 2.46839 1.0527
lowerneck 5.56938 21.614 12.7119
upperneck 4.0697 31.0881 -20.3037
head 5.54715 15.5006 -5.77684
rclavicle 5.2827e-014 9.93923e-015
rhumerus -40.5717 -20.4546 -73.3494
rradius 34.0393
rwrist 19.6429
rhand -18.2132 25.2235
rfingers 7.12502
rthumb 8.0646 -4.60267
lclavicle 5.2827e-014 9.93923e-015
lhumerus -25.4125 8.11111 81.5141
lradius 26.5298
lwrist -20.4868
lhand -13.415 30.5037
lfingers 7.12502
lthumb 12.6931 60.098
rfemur -27.8829 11.8236 11.8243
rtibia 14.8854
rfoot -11.9413 -17.4663
rtoes -19.2243
lfemur 8.56229 -1.18091 -23.9342
ltibia 7.9901
lfoot -7.69791 -8.53444
ltoes -2.04243
189
root 0.719439 18.6768 11.0353 6.05943 14.4164 2.69153
lowerback 2.25674 3.91848 -5.06521
upperback 1.89819 5.14973 -1.64762
thorax 0.399777 2.53776 1.02191
lowerneck 5.49317 21.5542 12.6498
upperneck 4.21966 31.0266 -20.2884
head 5.58357 15.4597 -5.76364
rclavicle 9.55657e-014 -1.98785e-014
rhumerus -40.6822 -20.4292 -73.2318
rradius 33.9452
rwrist 19.7215
rhand -18.0278 25.5588
rfingers 7.12502
rthumb 8.24346 -4.26039
lclavicle 9.55657e-014 -1.98785e-014
lhumerus -25.4981 7.51741 81.8193
lradius 26.9126
lwrist -19.8117
lhand -12.8442 31.2782
lfingers 7.12502
lthumb 13.2434 60.8375
rfemur -27.9145 11.1609 12.3403
rtibia 15.1176
rfoot -11.983 -16.5088
rtoes -20.2854
lfemur 9.97021 -1.03506 -23.9911
ltibia 6.62271
lfoot -6.86949 -8.53773
ltoes -5.41787
190
root 0.74001 18.6604 11.2128 5.83406 14.2165 2.92564
lowerback 2.16376 3.99278 -5.36095
upperback 2.12886 5.26075 -1.55503
thorax 0.649482 2.58078 1.29207
lowerneck 5.23505 21.5146 12.4239
upperneck 4.34908 30.99 -20.4195
head 5.64741 15.4172 -5.74894
rclavicle 6.44062e-014 -2.60408e-014
rhumerus -40.3534 -20.3956 -73.0742
rradius 33.7166
rwrist 19.8859
rhand -17.6973 25.6061
rfingers 7.12502
rthumb 8.56241 -4.20029
lclavicle 6.44062e-014 -2.60408e-014
lhumerus -25.2125 7.44471 82.2026
lradius 26.941
lwrist -19.2367
lhand -13.5287 31.208
lfingers 7.12502
lthumb 12.5836 60.809
rfemur -28.332 11.3632 12.3287
rtibia 16.2091
rfoot -13.0245 -15.997
rtoes -18.881
lfemur 12.225 -0.843192 -24.2057
ltibia 3.99627
lfoot -5.72033 -8.61731
ltoes -10.2598
